# xmcd
#
# Track frame offsets:
#	150
#	10194
#	25874
#	41831
#	57885
#	73275
#	86276
#	101970
#	116787
#	126250
#	143672
#	157177
#	176982
#	184297
#	193835
#	206692
#	219124
#	233546
#	250228
#	257648
#	273137
#	283628
#	296079
#	312814
#	319941
#	327352
#	340494
#	348978
#
# Disc length: 4790 seconds
#
# Revision: 0
# Processed by: cddbd v1.5.1PL2 Copyright (c) Steve Scherf et al.
# Submitted via: dBpowerAMP V4.0
#
DISCID=b712b41c
DTITLE=Dj Leo13b - Frente a Frente
DYEAR=2006
DGENRE=Grupero
TTITLE0=El Trono de Mexico y Tierra Cali
TTITLE1=Tierra Cali - El Baile del Sacadito
TTITLE2=El Trono de Mexico - No te apartes de mi
TTITLE3=tierra cali - amor te amo
TTITLE4=El Trono de Mexico - la loca
TTITLE5=tierra cali - el muerto al pozo y el vivo al goso
TTITLE6=El Trono de Mexico -  Ganas de Volver a Amar
TTITLE7=tierra cali - la guresita
TTITLE8=El Trono de Mexico - me sacaron del tenampa
TTITLE9=tierra cali - caminos de michoacan
TTITLE10=El Trono de Mexico - de noche vienes de dia te vas
TTITLE11=tierra cali - ernestina
TTITLE12=El Trono de Mexico - El Pesado
TTITLE13=tierra cali - el pescado nadador
TTITLE14=El Trono de Mexico - rios de babilonia
TTITLE15=tierra cali - chaparrita de mi vida
TTITLE16=El Trono de Mexico - el muchacho alegre
TTITLE17=tierra cali - era de madrugada
TTITLE18=El Trono de Mexico - la basurita
TTITLE19=tierra cali - yo te are volar
TTITLE20=El Trono de Mexico - cancion de paz
TTITLE21=tierra cali - el seis
TTITLE22=El Trono de Mexico - la carta
TTITLE23=tierra cali - la milpa
TTITLE24=El Trono de Mexico - de esta sierra a la otra sierra
TTITLE25=tierra cali - no pares
TTITLE26=El Trono de Mexico - dos menores de edad
TTITLE27=tierra cali - el corrido de los perez
EXTD=Special para Consuelo
EXTT0=
EXTT1=
EXTT2=
EXTT3=
EXTT4=
EXTT5=
EXTT6=
EXTT7=
EXTT8=
EXTT9=
EXTT10=
EXTT11=
EXTT12=
EXTT13=
EXTT14=
EXTT15=
EXTT16=
EXTT17=
EXTT18=
EXTT19=
EXTT20=
EXTT21=
EXTT22=
EXTT23=
EXTT24=
EXTT25=
EXTT26=
EXTT27=
PLAYORDER=
